<svg width="4096" height="4096" viewBox="0 0 4096 4096" fill="none" xmlns="http://www.w3.org/2000/svg">
<path d="M2239.38 741C2504.68 741 2722.63 943.478 2747.26 1202.33C2402.52 1096.96 2012.43 1180.54 1739.76 1453.22C1608.55 1584.43 1521.17 1742.85 1477.5 1910.31H921.245C874.278 1910.31 836.204 1948.38 836.204 1995.35C836.204 2042.32 874.279 2080.39 921.245 2080.39H1448.41C1437.59 2208.82 1451.32 2338.91 1489.6 2463.07H921.245C874.278 2463.07 836.204 2501.15 836.204 2548.11C836.204 2595.08 874.278 2633.16 921.245 2633.16H1559.63C1605.78 2721.12 1665.82 2803.7 1739.76 2877.65C1951.7 3089.59 2234.59 3187.26 2511.98 3170.8C2433.12 3220.75 2339.63 3249.7 2239.38 3249.7H921.245C639.445 3249.7 411 3021.26 411 2739.46V1251.24C411 969.444 639.445 741 921.245 741H2239.38ZM921.242 1357.54C874.275 1357.54 836.201 1395.61 836.201 1442.58C836.201 1489.55 874.276 1527.62 921.242 1527.62H1452.75L1457.13 1527.52C1502.06 1525.24 1537.79 1488.08 1537.79 1442.58C1537.79 1397.08 1502.06 1359.92 1457.13 1357.64L1452.75 1357.54H921.242Z" fill="url(#paint0_linear_4034_2571)"/>
<path d="M2331.36 2047.65C2342.16 2043.56 2350.82 2035.31 2355.37 2024.8L2457.49 1788.9C2472.29 1754.71 2521.31 1754.71 2536.12 1788.9L2638.23 2024.8C2642.78 2035.31 2651.44 2043.56 2662.24 2047.65L2872.52 2127.3C2907.85 2140.68 2909.49 2189.49 2875.14 2205.17L2659.65 2303.5C2650.42 2307.71 2643.01 2315.04 2638.75 2324.17L2535.63 2545.06C2520.34 2577.81 2473.26 2577.81 2457.97 2545.06L2354.86 2324.17C2350.6 2315.04 2343.18 2307.71 2333.95 2303.5L2118.46 2205.17C2084.11 2189.49 2085.75 2140.68 2121.08 2127.3L2331.36 2047.65Z" fill="url(#paint1_linear_4034_2571)"/>
<path d="M2492.82 1304.75C2963.6 1304.76 3345.25 1686.4 3345.25 2157.18C3345.25 2354.63 3278.11 2536.39 3165.43 2680.91C3166.13 2681.59 3166.84 2682.27 3167.53 2682.97L3401.4 2916.84C3467.82 2983.26 3467.82 3090.95 3401.4 3157.37C3334.98 3223.79 3227.29 3223.78 3160.87 3157.37L2927 2923.5C2920.11 2916.61 2913.93 2909.27 2908.47 2901.57C2785.5 2970.38 2643.74 3009.6 2492.82 3009.6C2022.04 3009.6 1640.4 2627.96 1640.4 2157.18C1640.4 1686.4 2022.04 1304.75 2492.82 1304.75ZM2492.82 1488.14C2119.57 1488.14 1816.99 1790.72 1816.99 2163.97C1816.99 2537.22 2119.57 2839.8 2492.82 2839.8C2866.07 2839.8 3168.65 2537.22 3168.65 2163.97C3168.65 1790.72 2866.07 1488.14 2492.82 1488.14Z" fill="url(#paint2_linear_4034_2571)"/>
<defs>
<linearGradient id="paint0_linear_4034_2571" x1="1579.13" y1="741" x2="1579.13" y2="3249.7" gradientUnits="userSpaceOnUse">
<stop stop-color="#FFD174"/>
<stop offset="1" stop-color="#FEB545"/>
</linearGradient>
<linearGradient id="paint1_linear_4034_2571" x1="2496.8" y1="1763.26" x2="2496.8" y2="2569.63" gradientUnits="userSpaceOnUse">
<stop stop-color="#FFD174"/>
<stop offset="1" stop-color="#FEB545"/>
</linearGradient>
<linearGradient id="paint2_linear_4034_2571" x1="2545.8" y1="1304.75" x2="2545.8" y2="3207.18" gradientUnits="userSpaceOnUse">
<stop stop-color="#FFD174"/>
<stop offset="1" stop-color="#FEB545"/>
</linearGradient>
</defs>
</svg>
